<svg width="50" height="50" viewBox="0 0 50 50" fill="none" xmlns="http://www.w3.org/2000/svg">
<g clip-path="url(#clip0_267_1122)">
<path fill-rule="evenodd" clip-rule="evenodd" d="M25 50C38.8071 50 50 38.8071 50 25C50 11.1929 38.8071 0 25 0C11.1929 0 0 11.1929 0 25C0 38.8071 11.1929 50 25 50ZM29.2236 13C31.3945 13.376 33.4709 14.0363 35.4128 14.9449C38.8083 20.0156 40.4954 25.7346 39.8725 32.3307C37.2746 34.2732 34.7545 35.4517 32.2769 36.2229C31.6635 35.3819 31.1207 34.4853 30.6512 33.5454C31.5455 33.2056 32.4044 32.7862 33.2161 32.297C33.0037 32.138 32.7937 31.9717 32.5884 31.8005C27.7111 34.1094 22.3477 34.1094 17.4115 31.8005C17.2086 31.9717 16.9986 32.138 16.7838 32.297C17.5932 32.7839 18.4497 33.2032 19.344 33.543C18.8744 34.4853 18.3294 35.3794 17.7182 36.2205C15.243 35.4493 12.7253 34.2708 10.1274 32.3307C9.59649 26.6407 10.6583 20.8687 14.5752 14.9497C16.5172 14.0387 18.596 13.376 20.7692 13C21.0382 13.482 21.3567 14.1303 21.5714 14.6461C23.8367 14.299 26.1231 14.299 28.4308 14.6461C28.6455 14.1303 28.957 13.482 29.2236 13ZM17.3194 25.7635C17.3194 27.4481 18.5347 28.8314 20.0165 28.8314C21.5243 28.8314 22.7158 27.4481 22.7135 25.7635C22.7394 24.0764 21.5243 22.6931 20.0165 22.6931C18.5087 22.6931 17.3194 24.0789 17.3194 25.7635ZM27.2864 25.7635C27.2864 27.4481 28.5016 28.8314 29.9834 28.8314C31.4912 28.8314 32.6805 27.4481 32.6805 25.7635C32.7064 24.0764 31.4912 22.6931 29.9834 22.6931C28.4756 22.6931 27.2864 24.0789 27.2864 25.7635Z" fill="black"/>
</g>
<defs>
<clipPath id="clip0_267_1122">
<rect width="50" height="50" fill="white"/>
</clipPath>
</defs>
</svg>
