<svg width="100" height="100" viewBox="0 0 100 100" fill="none" xmlns="http://www.w3.org/2000/svg">
<g clip-path="url(#clip0_187_135)">
<rect width="100" height="100" rx="10" fill="white"/>
<path d="M100 0H0V100H100V0Z" fill="white"/>
<path d="M50 50.5556C50 47.756 51.1121 45.0712 53.0917 43.0917C55.0712 41.1121 57.756 40 60.5556 40C63.3551 40 66.0399 41.1121 68.0194 43.0917C69.999 45.0712 71.1111 47.756 71.1111 50.5556C71.1111 53.3551 69.999 56.0399 68.0194 58.0194C66.0399 59.999 63.3551 61.1111 60.5556 61.1111C57.756 61.1111 55.0712 59.999 53.0917 58.0194C51.1121 56.0399 50 53.3551 50 50.5556Z" fill="#1ABCFE"/>
<path d="M28.8889 71.6664C28.8889 68.8668 30.001 66.1821 31.9806 64.2025C33.9601 62.223 36.6449 61.1108 39.4445 61.1108H50V71.6664C50 74.466 48.8879 77.1507 46.9084 79.1303C44.9288 81.1098 42.244 82.222 39.4445 82.222C36.6449 82.222 33.9601 81.1098 31.9806 79.1303C30.001 77.1507 28.8889 74.466 28.8889 71.6664Z" fill="#0ACF83"/>
<path d="M50 18.8887V39.9998H60.5556C63.3551 39.9998 66.0399 38.8877 68.0194 36.9081C69.999 34.9286 71.1111 32.2438 71.1111 29.4442C71.1111 26.6447 69.999 23.9599 68.0194 21.9803C66.0399 20.0008 63.3551 18.8887 60.5556 18.8887H50Z" fill="#FF7262"/>
<path d="M28.8889 29.4442C28.8889 32.2438 30.001 34.9286 31.9806 36.9081C33.9601 38.8877 36.6449 39.9998 39.4445 39.9998H50V18.8887H39.4445C36.6449 18.8887 33.9601 20.0008 31.9806 21.9803C30.001 23.9599 28.8889 26.6447 28.8889 29.4442Z" fill="#F24E1E"/>
<path d="M28.8889 50.5556C28.8889 53.3551 30.001 56.0399 31.9806 58.0194C33.9601 59.999 36.6449 61.1111 39.4445 61.1111H50V40H39.4445C36.6449 40 33.9601 41.1121 31.9806 43.0917C30.001 45.0712 28.8889 47.756 28.8889 50.5556Z" fill="#A259FF"/>
</g>
<defs>
<clipPath id="clip0_187_135">
<rect width="100" height="100" rx="10" fill="white"/>
</clipPath>
</defs>
</svg>
