<svg width="100" height="100" viewBox="0 0 100 100" fill="none" xmlns="http://www.w3.org/2000/svg">
<rect width="100" height="100" rx="10" fill="white"/>
<g style="mix-blend-mode:multiply" opacity="0.2">
<path d="M34.9126 71.25C34.032 71.2594 33.1789 71.5574 32.484 72.0981C31.789 72.6388 31.2905 73.3926 31.065 74.2437C30.8394 75.0949 30.8992 75.9966 31.2352 76.8105C31.5711 77.6245 32.1648 78.3058 32.9251 78.75L47.1251 86.8C48.2947 87.4649 49.6172 87.8138 50.9626 87.8125C51.6864 87.812 52.4064 87.7068 53.1001 87.5L74.4625 81.4125C76.056 80.9547 77.4576 79.9916 78.4563 78.6682C79.455 77.3449 79.9968 75.7329 80 74.075V71.25H34.9126Z" fill="white"/>
</g>
<g style="mix-blend-mode:multiply" opacity="0.12">
<path d="M34.9126 71.25C34.032 71.2594 33.1789 71.5574 32.484 72.0981C31.789 72.6388 31.2905 73.3926 31.065 74.2437C30.8394 75.0949 30.8992 75.9966 31.2352 76.8105C31.5711 77.6245 32.1648 78.3058 32.9251 78.75L47.1251 86.8C48.2947 87.4649 49.6172 87.8138 50.9626 87.8125C51.6864 87.812 52.4064 87.7068 53.1001 87.5L74.4625 81.4125C76.056 80.9547 77.4576 79.9916 78.4563 78.6682C79.455 77.3449 79.9968 75.7329 80 74.075V71.25H34.9126Z" fill="white"/>
</g>
<path d="M53.0125 12.5L58.75 25.625V71.25L53.1 87.5L74.4625 81.4125C76.0559 80.9547 77.4575 79.9916 78.4562 78.6682C79.4549 77.3449 79.9967 75.7329 80 74.075V25.925C80.0007 24.2628 79.4591 22.6458 78.4575 21.3193C77.4559 19.9928 76.0488 19.0293 74.45 18.575L53.0125 12.5Z" fill="url(#paint0_linear_296_512)"/>
<path d="M25.925 70.7623L32.175 67.3873C33.0322 66.9162 33.7467 66.2231 34.2438 65.3808C34.7408 64.5384 35.002 63.5778 35 62.5998V38.0373C35.0012 36.9184 35.3458 35.8269 35.9875 34.9104C36.6291 33.9938 37.5367 33.2963 38.5875 32.9123L58.75 25.6248V20.0873C58.7477 18.371 58.1865 16.7021 57.1513 15.3332C56.1161 13.9642 54.6633 12.9696 53.0125 12.4998C52.3095 12.2979 51.5814 12.1969 50.85 12.1998C49.4743 12.2029 48.1226 12.5602 46.925 13.2373L23.85 26.3998C22.6807 27.0661 21.7086 28.0299 21.0324 29.1935C20.3562 30.3571 20 31.679 20 33.0248V67.2248C19.9983 67.9209 20.1776 68.6054 20.5205 69.2112C20.8633 69.817 21.3579 70.3232 21.9556 70.68C22.5532 71.0369 23.2335 71.2321 23.9294 71.2465C24.6254 71.2609 25.3131 71.0941 25.925 70.7623Z" fill="url(#paint1_linear_296_512)"/>
<path d="M58.7501 71.25H34.9126C34.032 71.2594 33.1789 71.5574 32.484 72.0981C31.789 72.6388 31.2905 73.3926 31.065 74.2437C30.8394 75.0949 30.8992 75.9966 31.2352 76.8105C31.5711 77.6245 32.1648 78.3058 32.9251 78.75L47.1251 86.8C48.2947 87.4649 49.6172 87.8138 50.9626 87.8125C51.6864 87.812 52.4064 87.7068 53.1001 87.5C54.7306 87.0367 56.1652 86.0532 57.1851 84.6993C58.2051 83.3453 58.7546 81.6951 58.7501 80V71.25Z" fill="url(#paint2_linear_296_512)"/>
<path d="M25.925 70.7623L32.175 67.3873C33.0322 66.9162 33.7467 66.2231 34.2438 65.3808C34.7408 64.5384 35.002 63.5778 35 62.5998V38.0373C35.0012 36.9184 35.3458 35.8269 35.9875 34.9104C36.6291 33.9938 37.5367 33.2963 38.5875 32.9123L58.75 25.6248V20.0873C58.7477 18.371 58.1865 16.7021 57.1513 15.3332C56.1161 13.9642 54.6633 12.9696 53.0125 12.4998C52.3095 12.2979 51.5814 12.1969 50.85 12.1998C49.4743 12.2029 48.1226 12.5602 46.925 13.2373L23.85 26.3998C22.6807 27.0661 21.7086 28.0299 21.0324 29.1935C20.3562 30.3571 20 31.679 20 33.0248V67.2248C19.9983 67.9209 20.1776 68.6054 20.5205 69.2112C20.8633 69.817 21.3579 70.3232 21.9556 70.68C22.5532 71.0369 23.2335 71.2321 23.9294 71.2465C24.6254 71.2609 25.3131 71.0941 25.925 70.7623Z" fill="url(#paint3_linear_296_512)"/>
<path d="M58.7501 71.25H34.9126C34.032 71.2594 33.1789 71.5574 32.484 72.0981C31.789 72.6388 31.2905 73.3926 31.065 74.2437C30.8394 75.0949 30.8992 75.9966 31.2352 76.8105C31.5711 77.6245 32.1648 78.3058 32.9251 78.75L47.1251 86.8C48.2947 87.4649 49.6172 87.8138 50.9626 87.8125C51.6864 87.812 52.4064 87.7068 53.1001 87.5C54.7306 87.0367 56.1652 86.0532 57.1851 84.6993C58.2051 83.3453 58.7546 81.6951 58.7501 80V71.25Z" fill="url(#paint4_linear_296_512)"/>
<defs>
<linearGradient id="paint0_linear_296_512" x1="66.5" y1="8.225" x2="66.5" y2="82.25" gradientUnits="userSpaceOnUse">
<stop stop-color="#FFB900"/>
<stop offset="0.17" stop-color="#EF8400"/>
<stop offset="0.31" stop-color="#E25C01"/>
<stop offset="0.43" stop-color="#DB4401"/>
<stop offset="0.5" stop-color="#D83B01"/>
</linearGradient>
<linearGradient id="paint1_linear_296_512" x1="53.15" y1="10.8373" x2="13.95" y2="66.8123" gradientUnits="userSpaceOnUse">
<stop stop-color="#800600"/>
<stop offset="0.6" stop-color="#C72127"/>
<stop offset="0.73" stop-color="#C13959"/>
<stop offset="0.85" stop-color="#BC4B81"/>
<stop offset="0.94" stop-color="#B95799"/>
<stop offset="1" stop-color="#B85BA2"/>
</linearGradient>
<linearGradient id="paint2_linear_296_512" x1="33.1251" y1="79.5375" x2="84.3001" y2="79.5375" gradientUnits="userSpaceOnUse">
<stop stop-color="#F32B44"/>
<stop offset="0.6" stop-color="#A4070A"/>
</linearGradient>
<linearGradient id="paint3_linear_296_512" x1="53.95" y1="9.69977" x2="45.65" y2="21.5498" gradientUnits="userSpaceOnUse">
<stop stop-opacity="0.4"/>
<stop offset="1" stop-opacity="0"/>
</linearGradient>
<linearGradient id="paint4_linear_296_512" x1="67.9001" y1="80.6875" x2="44.9876" y2="78.6875" gradientUnits="userSpaceOnUse">
<stop stop-opacity="0.4"/>
<stop offset="1" stop-opacity="0"/>
</linearGradient>
</defs>
</svg>
