<svg width="50" height="50" viewBox="0 0 50 50" fill="none" xmlns="http://www.w3.org/2000/svg">
<g clip-path="url(#clip0_19_210)">
<path d="M22.666 0.0976639C14.1895 0.917976 6.61134 6.05469 2.77345 13.5938C1.41603 16.2598 0.615246 18.8281 0.175793 21.9238C-0.0195198 23.291 0.00977707 26.8457 0.234386 28.3691C0.615246 31.084 1.41603 33.6523 2.6465 36.1231C5.07814 41.0254 8.96486 44.9121 13.877 47.3535C21.8359 51.3184 31.25 50.7715 38.6719 45.918C41.5723 44.0234 44.3262 41.2109 46.2012 38.2227C46.9238 37.0898 47.9981 34.8828 48.4863 33.5547C48.9844 32.207 49.5606 29.8828 49.7656 28.3691C49.9902 26.8359 50.0195 23.2813 49.8242 21.9238C49.2481 17.8711 47.959 14.4141 45.8203 11.1914C44.9219 9.82422 44.0137 8.71095 42.7442 7.43165C38.8477 3.4961 34.0039 1.0547 28.4668 0.234383C27.2754 0.0586014 23.916 -0.0195236 22.666 0.0976639ZM26.9531 9.51173C28.8965 9.7754 30.3613 10.2344 32.1387 11.1523C39.5801 14.9707 42.6172 24.1895 38.8965 31.6895C37.3731 34.7559 35.0586 37.1094 32.0215 38.6621C27.9395 40.7422 23.1348 40.9082 18.877 39.1016L18.0762 38.7598L14.1406 39.6875C11.9727 40.2051 10.1465 40.625 10.0684 40.625C9.834 40.625 9.57032 40.3223 9.57032 40.0488C9.57032 39.9121 9.93165 38.0371 10.3711 35.8984C11.1621 32.0508 11.1621 31.9922 11.0156 31.6016C10.9277 31.377 10.6934 30.7813 10.4981 30.2734C9.26759 27.1191 9.19923 23.3691 10.3027 19.9707C10.6738 18.8477 11.6309 16.9531 12.334 15.9473C13.0859 14.8731 14.9317 13.0273 15.9863 12.2754C19.1602 10.0293 23.1836 9.01368 26.9531 9.51173Z" fill="black"/>
<path d="M24.2676 12.7637C22.4415 12.9102 20.9961 13.3203 19.4336 14.1211C14.1602 16.8262 11.6407 22.959 13.4766 28.6426C13.6329 29.1309 13.9844 29.961 14.2481 30.4883L14.7168 31.4258L14.2383 33.75C13.9747 35.0293 13.7793 36.1231 13.7891 36.1914C13.8086 36.2598 14.5704 36.1231 16.1622 35.7422L18.5059 35.1856L19.4336 35.6445C23.545 37.6856 28.125 37.4024 31.875 34.8633C36.2793 31.9043 38.2032 26.1426 36.504 21.0449C35.293 17.4121 32.3633 14.502 28.7598 13.3496C27.7149 13.0176 27.1778 12.9102 26.0743 12.793C25.1563 12.6953 25.0293 12.6953 24.2676 12.7637ZM20.3614 17.5195C20.7325 17.6758 20.8204 17.832 21.6895 19.7949C22.002 20.5274 22.2657 21.2598 22.2657 21.4453C22.2657 21.6797 22.129 21.9434 21.7286 22.4707C21.0743 23.3301 21.0352 23.6426 21.4942 24.375C21.8653 24.9707 23.6329 26.7188 24.6094 27.461C26.1329 28.6231 26.8067 28.8965 27.3731 28.6035C27.4903 28.5352 27.8614 28.2324 28.1934 27.9199C28.6817 27.4512 28.8477 27.3438 29.1211 27.3438C29.2969 27.3438 30.1954 27.5684 31.1036 27.832C32.5196 28.2422 32.8028 28.3496 33.0372 28.6133C33.2227 28.8281 33.3008 29.0137 33.3008 29.2871C33.3008 30.0879 31.8653 31.7188 30.7911 32.1387C30.0391 32.4317 28.3204 32.461 27.295 32.1875C24.8243 31.5332 21.8457 29.4434 19.668 26.8262C17.9395 24.7656 17.2461 23.1641 17.2364 21.2891C17.2364 20.3223 17.2559 20.2246 17.5586 19.5996C17.7735 19.1699 18.125 18.7012 18.5645 18.252C19.4434 17.3633 19.7168 17.2559 20.3614 17.5195Z" fill="black"/>
</g>
<defs>
<clipPath id="clip0_19_210">
<rect width="50" height="50" fill="white"/>
</clipPath>
</defs>
</svg>
