<svg width="50" height="50" viewBox="0 0 50 50" fill="none" xmlns="http://www.w3.org/2000/svg">
<g clip-path="url(#clip0_267_1126)">
<path fill-rule="evenodd" clip-rule="evenodd" d="M25 50C38.8071 50 50 38.8071 50 25C50 11.1929 38.8071 0 25 0C11.1929 0 0 11.1929 0 25C0 38.8071 11.1929 50 25 50ZM10.1884 15.3409C10.5549 14.5568 11.3134 13.9006 12.2168 13.6023C12.7623 13.4233 13.7509 13.5 14.2708 13.7642C14.5095 13.8835 17.0151 15.7159 19.8362 17.8295L24.9583 21.6733L30.089 17.8295C32.91 15.7074 35.4242 13.8835 35.6884 13.7557C36.089 13.5682 36.285 13.5341 36.8901 13.5341C37.5038 13.5341 37.6913 13.5682 38.143 13.7813C38.7651 14.0625 39.447 14.7443 39.7282 15.3409L39.9157 15.75L39.9413 24.9886C39.9634 33.8843 39.9856 34.6782 39.6034 35.1302C39.5443 35.2 39.4756 35.2616 39.3958 35.3438C39.2427 35.5012 39.1322 35.6177 39.0019 35.7044C38.6245 35.9553 38.0804 35.9554 35.8504 35.9744L33.1401 36V30.196V24.4006L29.0492 27.4688L24.9583 30.5369L20.8674 27.4688L16.7765 24.4006V30.196V35.9915H14.2367C11.3901 35.9915 11.143 35.9574 10.606 35.429C10.5003 35.326 10.4129 35.263 10.3407 35.1859C9.96494 34.7842 10.0009 33.9972 10.0009 25.1676V15.75L10.1884 15.3409Z" fill="black"/>
</g>
<defs>
<clipPath id="clip0_267_1126">
<rect width="50" height="50" fill="white"/>
</clipPath>
</defs>
</svg>
