<svg width="100" height="100" viewBox="0 0 100 100" fill="none" xmlns="http://www.w3.org/2000/svg">
<rect width="100" height="100" rx="10" fill="white"/>
<path fill-rule="evenodd" clip-rule="evenodd" d="M49.8204 73.1277C45.1561 73.1277 41.552 72.4236 39.8188 72.0039C38.6336 71.717 37.6819 71.4201 36.9589 71.1151L39.2704 75.0835L40.1746 87.4831C40.1746 88.8732 44.5691 90 49.9898 90C55.4106 90 59.805 88.8732 59.805 87.4831L60.521 74.9486L62.7081 71.1034C61.982 71.4126 61.0218 71.7135 59.8218 72.0039C58.0886 72.4236 54.4845 73.1277 49.8204 73.1277ZM62.7831 32.7791C59.3598 33.2595 54.8163 33.5243 49.9898 33.5243C45.1633 33.5243 40.6199 33.2595 37.1966 32.7791C35.5008 32.5411 34.1592 32.2604 33.209 31.9452C32.9823 31.8698 32.5982 31.7413 32.2285 31.5366L34.3495 51.1522C34.4481 50.8143 34.5578 50.4769 34.6795 50.1408C34.9285 49.4519 35.2165 48.7783 35.5434 48.1203C35.8705 47.4625 36.2265 46.8407 36.6114 46.255C36.9961 45.6694 37.4059 45.1302 37.84 44.6375C38.2743 44.145 38.7198 43.7214 39.1773 43.3664C39.6345 43.0118 40.0961 42.7344 40.562 42.5346C41.0282 42.3349 41.4898 42.2348 41.947 42.2348C42.4737 42.2348 42.9832 42.3795 43.4754 42.669C43.9674 42.9582 44.4273 43.4268 44.8559 44.0744C44.9542 44.2191 45.0166 44.3655 45.0424 44.5136C45.0687 44.6618 45.0815 44.8013 45.0815 44.9321C45.0815 45.2421 45.0077 45.4869 44.8602 45.6659C44.7127 45.8451 44.5375 45.9346 44.335 45.9346C44.1494 45.9346 43.9773 45.8364 43.8182 45.6402C43.6589 45.4437 43.481 45.163 43.2841 44.7978C43.0987 44.467 42.8948 44.2279 42.6721 44.0796C42.4491 43.9316 42.2076 43.8574 41.947 43.8574C41.5418 43.8574 41.1092 44.0262 40.649 44.3639C40.1887 44.7013 39.7329 45.1475 39.2816 45.702C38.8299 46.2568 38.3972 46.8905 37.9834 47.6037C37.5695 48.3167 37.2032 49.047 36.8848 49.7944C36.5664 50.5423 36.3135 51.2796 36.1252 52.0063C35.937 52.7331 35.843 53.3859 35.843 53.9645C35.843 54.1576 35.8562 54.3559 35.882 54.5588C35.9083 54.7622 35.9572 54.9464 36.0298 55.1119C36.1019 55.2774 36.2004 55.4132 36.3248 55.5197C36.4494 55.6268 36.6071 55.68 36.798 55.68C37.0123 55.68 37.2552 55.6077 37.5276 55.463C37.7995 55.3187 38.0817 55.1289 38.3739 54.8949C38.6663 54.6605 38.9601 54.3954 39.2554 54.0989C39.5508 53.8028 39.8256 53.5032 40.0802 53.1998C40.3348 52.8969 40.5606 52.6056 40.7573 52.3267C40.9542 52.0477 41.1017 51.8047 41.2003 51.5979L42.0078 49.1693C42.1061 48.9077 42.2349 48.7216 42.3942 48.6114C42.5533 48.5011 42.7169 48.4459 42.8849 48.4459C42.9657 48.4459 43.0467 48.4598 43.1279 48.4872C43.2091 48.5148 43.2812 48.558 43.345 48.6164C43.4087 48.6751 43.4593 48.7507 43.4969 48.8439C43.5345 48.9367 43.5533 49.0453 43.5533 49.1693C43.5533 49.5 43.5244 49.8098 43.4665 50.0995C43.4087 50.3891 43.3349 50.6713 43.245 50.947C43.1554 51.2223 43.0554 51.4997 42.9454 51.7788C42.8355 52.0578 42.7283 52.3489 42.6243 52.6523C42.6012 52.6868 42.5593 52.7949 42.4983 52.9774C42.4376 53.1604 42.364 53.3896 42.277 53.6649C42.1902 53.9406 42.096 54.2488 41.9948 54.5899C41.8933 54.931 41.7894 55.2788 41.6823 55.6337C41.5751 55.9885 41.4724 56.3365 41.3741 56.6776C41.2755 57.0186 41.1871 57.3269 41.1092 57.6026C41.0311 57.878 40.966 58.1086 40.9137 58.2949C40.8616 58.4809 40.8298 58.591 40.8183 58.6258C40.7893 58.7357 40.7428 58.8582 40.6794 58.9923C40.6158 59.1267 40.5405 59.2543 40.4536 59.3748C40.3668 59.4952 40.2713 59.5955 40.167 59.6744C40.0628 59.7535 39.9558 59.7934 39.8457 59.7934C39.6605 59.7934 39.5258 59.7313 39.4421 59.6075C39.358 59.4834 39.3163 59.256 39.3163 58.9255V58.7807C39.3163 58.7324 39.319 58.6804 39.3248 58.6258C39.3304 58.5154 39.374 58.3086 39.4552 58.0052C39.5362 57.7023 39.6331 57.3597 39.7461 56.9772C39.8589 56.5948 39.9806 56.1986 40.1108 55.7886C40.2407 55.3787 40.3581 55.012 40.4624 54.6881C40.1552 55.0328 39.8227 55.3754 39.4638 55.7165C39.1047 56.0574 38.7371 56.3641 38.3611 56.6361C37.9846 56.9083 37.6055 57.1305 37.2236 57.3028C36.8416 57.4749 36.474 57.5613 36.1209 57.5613C35.7157 57.5613 35.3669 57.4716 35.0743 57.2924C35.0217 57.2598 34.9719 57.2235 34.9223 57.1874L36.1025 69.622C36.4097 70.3958 42.1939 72.2971 49.8204 72.2971C57.4504 72.2971 63.2368 70.394 63.5387 69.6208L65.234 54.837C65.0938 54.9663 64.9572 55.0928 64.8266 55.2153C64.3402 55.6698 63.8813 56.0608 63.4501 56.388C63.0191 56.7152 62.5977 56.9687 62.1868 57.1475C61.7756 57.3269 61.3357 57.4164 60.8669 57.4164C60.427 57.4164 60.0867 57.3198 59.8466 57.127C59.6065 56.9343 59.4862 56.6691 59.4862 56.3313V56.2539C59.4862 56.2298 59.4891 56.2003 59.4951 56.1658C59.518 55.9594 59.6081 55.7213 59.7643 55.4528C59.9205 55.1839 60.1086 54.9051 60.3284 54.6159C60.5485 54.3264 60.7828 54.0335 61.0317 53.7372C61.2807 53.4411 61.5109 53.1604 61.7223 52.8948C61.9335 52.6301 62.1085 52.3871 62.2473 52.1664C62.3866 51.9459 62.456 51.767 62.456 51.6291C62.456 51.5464 62.4269 51.481 62.3692 51.4325C62.3112 51.3847 62.2155 51.3602 62.0826 51.3602C61.851 51.3602 61.6122 51.4206 61.3665 51.541C61.1202 51.6615 60.8768 51.8238 60.6367 52.0269C60.3966 52.2302 60.1621 52.4629 59.9333 52.7245C59.705 52.9864 59.4908 53.2586 59.291 53.5407C59.0911 53.8235 58.9091 54.1078 58.744 54.3937C58.5789 54.6796 58.4386 54.9431 58.3227 55.1839C58.288 55.2599 58.2388 55.3669 58.175 55.5043C58.1113 55.6422 58.0419 55.7975 57.9667 55.9696C57.8913 56.1419 57.8117 56.3195 57.7279 56.5016C57.644 56.6845 57.5673 56.8568 57.4979 57.0186C57.4285 57.1805 57.3663 57.3248 57.3115 57.4525C57.2561 57.5798 57.2171 57.6678 57.1939 57.7162C57.165 57.7781 57.1173 57.895 57.0507 58.0673C56.9842 58.2396 56.9074 58.4413 56.8208 58.6719C56.734 58.9026 56.6427 59.1455 56.547 59.4007C56.452 59.6553 56.3619 59.8968 56.278 60.1241C56.1939 60.3513 56.1201 60.5512 56.0567 60.7235C55.993 60.8955 55.9521 61.0128 55.9348 61.0749C55.8771 61.254 55.8089 61.4224 55.731 61.5815C55.6527 61.7397 55.5633 61.8792 55.4618 62.0001C55.3606 62.1205 55.2449 62.2168 55.1145 62.2891C54.9841 62.3618 54.838 62.3977 54.6762 62.3977C54.4676 62.3977 54.2956 62.3474 54.1593 62.2478C54.0235 62.1479 53.9553 61.9565 53.9553 61.6743C53.9553 61.5364 53.9727 61.3952 54.0074 61.2507C54.0421 61.106 54.0857 60.9627 54.1378 60.8218C54.1898 60.6801 54.2436 60.5427 54.2985 60.4084C54.3533 60.2738 54.4041 60.1449 54.4502 60.0207C54.763 59.3318 55.0814 58.6412 55.4054 57.9485C55.7294 57.2563 56.0406 56.5709 56.3389 55.8922C56.4009 55.7506 56.4579 55.6119 56.5185 55.4711C56.5003 55.4889 56.4825 55.5076 56.4648 55.5251C56.0883 55.8905 55.7137 56.2123 55.3403 56.4914C54.9667 56.7704 54.5963 56.9926 54.2291 57.1581C53.8613 57.3232 53.5039 57.406 53.1563 57.406C52.9191 57.406 52.721 57.3682 52.5619 57.2924C52.4026 57.2164 52.2755 57.113 52.1798 56.9824C52.0842 56.8516 52.016 56.6965 51.9755 56.5173C51.9618 56.4561 51.9534 56.3921 51.9445 56.3284C51.8428 56.4079 51.7403 56.4854 51.637 56.5589C51.2781 56.8134 50.925 57.0186 50.5777 57.1735C50.2305 57.3286 49.9177 57.406 49.6402 57.406C49.3621 57.406 49.1365 57.313 48.9625 57.127C48.7889 56.9411 48.7024 56.6241 48.7024 56.1764C48.7024 55.8592 48.7486 55.4906 48.841 55.0706C48.6906 55.3392 48.5026 55.6115 48.2769 55.8868C48.0509 56.1625 47.7934 56.4139 47.5042 56.6415C47.2143 56.8687 46.8903 57.053 46.5316 57.1942C46.1725 57.3354 45.7817 57.406 45.3594 57.406C45.1683 57.406 44.9846 57.3819 44.8079 57.3338C44.6313 57.2854 44.4765 57.2027 44.3434 57.0856C44.2102 56.9687 44.1033 56.8118 44.0221 56.6156C43.9411 56.4193 43.9007 56.1727 43.9007 55.8766C43.9007 55.8697 43.9122 55.7647 43.9354 55.5612C43.9585 55.3579 44.0323 55.0376 44.1569 54.6001C44.2812 54.1628 44.4738 53.596 44.734 52.9C44.9947 52.2042 45.3623 51.3602 45.8369 50.3683C45.9584 50.1063 46.0989 49.9186 46.2578 49.805C46.4173 49.6913 46.5892 49.6344 46.7744 49.6344C46.8556 49.6344 46.9395 49.6466 47.0262 49.6705C47.1134 49.6948 47.1942 49.7326 47.2696 49.7843C47.3446 49.836 47.4056 49.9016 47.4521 49.9807C47.498 50.0598 47.5215 50.151 47.5215 50.2544C47.5215 50.3233 47.5126 50.3891 47.4953 50.4506C47.4661 50.5683 47.4039 50.7211 47.3089 50.9105C47.2132 51.1002 47.1017 51.3172 46.9742 51.5618C46.8471 51.8064 46.7124 52.0699 46.5706 52.3527C46.4287 52.6348 46.2971 52.9276 46.1756 53.231C46.0541 53.5343 45.9497 53.8424 45.8629 54.156C45.7762 54.4695 45.7268 54.7745 45.7154 55.0706C45.7154 55.1945 45.7441 55.3081 45.8022 55.4115C45.8601 55.5149 45.9557 55.5664 46.0888 55.5664C46.4648 55.5664 46.8237 55.4422 47.1655 55.1945C47.5068 54.9464 47.8221 54.6381 48.1118 54.2695C48.4013 53.901 48.6631 53.5046 48.8976 53.0808C49.1321 52.6571 49.3274 52.2698 49.4836 51.9183C49.5937 51.6843 49.6906 51.4325 49.7745 51.164C49.8584 50.8951 49.9497 50.6474 50.0481 50.4198C50.1467 50.1923 50.2593 50.0029 50.3867 49.8513C50.5138 49.7 50.6733 49.624 50.864 49.624C51.0727 49.624 51.2374 49.7033 51.3593 49.8617C51.4808 50.0204 51.5414 50.2097 51.5414 50.43C51.5414 50.554 51.5025 50.7248 51.4242 50.9418C51.3459 51.1588 51.2475 51.4069 51.1289 51.686C51.0101 51.965 50.8814 52.263 50.7428 52.5796C50.6039 52.8969 50.4748 53.2187 50.3566 53.5461C50.2374 53.8734 50.1394 54.1937 50.0611 54.5073C49.9828 54.8206 49.944 55.1119 49.944 55.3804C49.944 55.6285 50.0712 55.7526 50.3258 55.7526C50.5054 55.7526 50.7281 55.6906 50.9944 55.5664C51.2608 55.4422 51.5401 55.2684 51.8323 55.0444C51.9052 54.9886 51.9788 54.9302 52.0517 54.869C52.1333 54.5307 52.229 54.218 52.3404 53.9338C52.5429 53.396 52.7484 52.8624 52.9569 52.3319C53.1652 51.8014 53.3561 51.3156 53.5301 50.8745L56.1608 44.2088C56.265 43.9401 56.4055 43.7505 56.5817 43.6403C56.7586 43.5302 56.9365 43.475 57.116 43.475C57.2952 43.475 57.4586 43.5335 57.6064 43.6506C57.7541 43.768 57.8281 43.9573 57.8281 44.2191C57.8281 44.3431 57.8033 44.4741 57.7541 44.6118C57.7049 44.7496 57.6427 44.8977 57.5673 45.0561C57.4229 45.3802 57.2506 45.7762 57.0507 46.2446C56.8509 46.7132 56.6367 47.2231 56.4081 47.7742C56.1794 48.3255 55.9449 48.8989 55.7048 49.4948C55.4647 50.0909 55.2302 50.6713 55.0015 51.2362C54.7731 51.8014 54.5587 52.3367 54.3589 52.8433C54.1593 53.3497 53.9874 53.7891 53.8423 54.1609C53.7787 54.3194 53.7165 54.5039 53.6559 54.7141C53.595 54.924 53.5648 55.1119 53.5648 55.2774C53.5648 55.3804 53.5822 55.463 53.6169 55.5251C53.6516 55.5872 53.7181 55.6183 53.8165 55.6183C53.938 55.6183 54.0898 55.5753 54.2723 55.4889C54.4545 55.403 54.6512 55.289 54.8626 55.1478C55.0742 55.0068 55.294 54.8449 55.5224 54.6622C55.7513 54.4797 55.9784 54.2903 56.204 54.0939C56.4301 53.8972 56.6456 53.701 56.8509 53.5046C57.0563 53.3084 57.2404 53.1276 57.4026 52.9621C57.4406 52.9224 57.4861 52.8944 57.5361 52.8734C57.6338 52.58 57.7231 52.2927 57.8018 52.0115C57.8481 51.8874 57.912 51.7119 57.9929 51.4844C58.0737 51.2568 58.1665 51.033 58.2706 50.8125C58.3748 50.5922 58.4924 50.4007 58.6221 50.239C58.7525 50.0772 58.893 49.9961 59.0434 49.9961C59.275 49.9961 59.443 50.0496 59.5472 50.1561C59.6513 50.2633 59.7034 50.4198 59.7034 50.6266C59.7034 50.668 59.6976 50.7334 59.686 50.8228C59.6742 50.9125 59.6602 51.0074 59.6428 51.1073C59.6255 51.207 59.6065 51.3019 59.5862 51.3916C59.5658 51.481 59.5472 51.5464 59.5298 51.5878C59.7437 51.3533 59.9753 51.121 60.2243 50.8903C60.4733 50.6594 60.7307 50.4506 60.997 50.2649C61.2636 50.0787 61.5355 49.9275 61.8136 49.8098C62.0911 49.6931 62.3692 49.6344 62.6469 49.6344C62.8378 49.6344 63.0275 49.662 63.2155 49.7172C63.4036 49.7722 63.5718 49.8532 63.7191 49.9599C63.8668 50.0671 63.9871 50.2012 64.0794 50.3632C64.172 50.5249 64.2183 50.7126 64.2183 50.9262C64.2183 51.209 64.1476 51.5103 64.0057 51.8307C63.8639 52.1511 63.686 52.4731 63.4718 52.7966C63.2575 53.1207 63.0259 53.4357 62.7773 53.7424C62.5283 54.049 62.2955 54.3279 62.0783 54.5793C61.8611 54.8312 61.6787 55.0444 61.531 55.2201C61.3838 55.3961 61.3066 55.5149 61.301 55.577C61.301 55.6596 61.3272 55.7267 61.3793 55.7786C61.4314 55.8301 61.5181 55.856 61.6396 55.856C61.738 55.856 61.883 55.8008 62.0737 55.6906C62.2647 55.5803 62.5327 55.3893 62.8769 55.1171C63.2211 54.8449 63.6585 54.4797 64.1881 54.0214C64.5514 53.7075 64.9766 53.3331 65.4558 52.9073L67.7522 31.536C67.3823 31.7411 66.9976 31.8698 66.7707 31.9452C65.8206 32.2604 64.479 32.5411 62.7831 32.7791ZM49.9762 27.7085C40.0483 27.7085 32 28.824 32 30.2001C32 31.5762 40.0483 32.6916 49.9762 32.6916C59.9041 32.6916 67.9524 31.5762 67.9524 30.2001C67.9524 28.824 59.9041 27.7085 49.9762 27.7085ZM57.1539 30.9282C57.1539 31.2511 56.1974 31.5129 55.0174 31.5129C53.8376 31.5129 52.8811 31.2511 52.8811 30.9282C52.8811 30.6052 53.8376 30.3433 55.0174 30.3433C56.1974 30.3433 57.1539 30.6052 57.1539 30.9282Z" fill="#DA4648"/>
<path fill-rule="evenodd" clip-rule="evenodd" d="M53.3137 30.6698C53.3031 30.6867 53.2976 30.7041 53.2976 30.7217C53.2976 30.9307 54.0677 31.1 55.0173 31.1C55.9672 31.1 56.7371 30.9307 56.7371 30.7217L58.9832 21.5697L67.9162 12.0924C67.9191 12.0895 67.9219 12.0865 67.9246 12.0834C68.1137 11.8685 67.73 11.2035 67.0934 10.6331C66.4568 10.0628 65.7694 9.86966 65.5557 10.0868C65.5541 10.0885 65.5526 10.0901 65.551 10.0918L56.0201 20.1698L53.3137 30.6698Z" fill="#DA4648"/>
</svg>
