<svg width="100" height="100" viewBox="0 0 100 100" fill="none" xmlns="http://www.w3.org/2000/svg">
<rect width="100" height="100" rx="10" fill="white"/>
<path d="M22.5 70.9168V28.0418C22.5 27.7502 22.625 27.5835 22.9167 27.5835C23.625 27.5835 24.2917 27.5835 25.25 27.5418C26.25 27.5002 27.2917 27.5002 28.4167 27.4585C29.5417 27.4168 30.75 27.4168 32.0417 27.3752C33.3333 27.3335 34.5833 27.3335 35.8333 27.3335C39.25 27.3335 42.0833 27.7502 44.4167 28.6252C46.5 29.3335 48.4167 30.5002 50 32.0418C51.3333 33.3752 52.375 35.0002 53.0417 36.7918C53.6667 38.5418 54 40.3335 54 42.2085C54 45.7918 53.1667 48.7502 51.5 51.0835C49.8333 53.4168 47.5 55.1668 44.7917 56.1668C41.9583 57.2085 38.8333 57.5835 35.4167 57.5835C34.4167 57.5835 33.75 57.5835 33.3333 57.5418C32.9167 57.5002 32.3333 57.5002 31.5417 57.5002V70.8752C31.5833 71.1668 31.375 71.4168 31.0833 71.4585C31.0417 71.4585 31 71.4585 30.9167 71.4585H23C22.6667 71.4585 22.5 71.2918 22.5 70.9168ZM31.5833 35.6252V49.6252C32.1667 49.6668 32.7083 49.7085 33.2083 49.7085H35.4167C37.0417 49.7085 38.6667 49.4585 40.2083 48.9585C41.5417 48.5835 42.7083 47.7918 43.625 46.7502C44.5 45.7085 44.9167 44.2918 44.9167 42.4585C44.9583 41.1668 44.625 39.8752 43.9583 38.7502C43.25 37.6668 42.25 36.8335 41.0417 36.3752C39.5 35.7502 37.8333 35.5002 36.125 35.5418C35.0417 35.5418 34.0833 35.5418 33.2917 35.5835C32.4583 35.5418 31.875 35.5835 31.5833 35.6252Z" fill="#31A8FF"/>
<path d="M80.0001 47.0837C78.7501 46.417 77.4168 45.9587 76.0001 45.667C74.4584 45.3337 72.9168 45.1253 71.3334 45.1253C70.5001 45.0837 69.6251 45.2087 68.8334 45.417C68.2918 45.542 67.8334 45.8337 67.5418 46.2503C67.3334 46.5837 67.2084 47.0003 67.2084 47.3753C67.2084 47.7503 67.3751 48.1253 67.6251 48.4587C68.0001 48.917 68.5001 49.292 69.0418 49.5837C70.0001 50.0837 71.0001 50.542 72.0001 50.9587C74.2501 51.7087 76.4168 52.7503 78.4168 54.0003C79.7918 54.8753 80.9168 56.042 81.7084 57.4587C82.3751 58.792 82.7084 60.2503 82.6668 61.7503C82.7084 63.7087 82.1251 65.667 81.0418 67.292C79.8751 68.9587 78.2501 70.2503 76.3751 71.0003C74.3334 71.8753 71.8334 72.3337 68.8334 72.3337C66.9168 72.3337 65.0418 72.167 63.1668 71.792C61.7084 71.542 60.2501 71.0837 58.9168 70.4587C58.6251 70.292 58.4168 70.0003 58.4584 69.667V62.417C58.4584 62.292 58.5001 62.1253 58.6251 62.042C58.7501 61.9587 58.8751 62.0003 59.0001 62.0837C60.6251 63.042 62.3334 63.7087 64.1668 64.1253C65.7501 64.542 67.4168 64.7503 69.0834 64.7503C70.6668 64.7503 71.7918 64.542 72.5418 64.167C73.2084 63.8753 73.6668 63.167 73.6668 62.417C73.6668 61.8337 73.3334 61.292 72.6668 60.7503C72.0001 60.2087 70.6251 59.5837 68.5834 58.792C66.4584 58.042 64.5001 57.042 62.6668 55.792C61.3751 54.8753 60.2918 53.667 59.5001 52.2503C58.8334 50.917 58.5001 49.4587 58.5418 48.0003C58.5418 46.2087 59.0418 44.5003 59.9584 42.9587C61.0001 41.292 62.5418 39.9587 64.3334 39.1253C66.2918 38.1253 68.7501 37.667 71.7084 37.667C73.4168 37.667 75.1668 37.792 76.8751 38.042C78.1251 38.2087 79.3334 38.542 80.4584 39.0003C80.6251 39.042 80.7918 39.2087 80.8751 39.3753C80.9168 39.542 80.9584 39.7087 80.9584 39.8753V46.667C80.9584 46.8337 80.8751 47.0003 80.7501 47.0837C80.3751 47.167 80.1668 47.167 80.0001 47.0837Z" fill="#31A8FF"/>
</svg>
