<svg width="100" height="100" viewBox="0 0 100 100" fill="none" xmlns="http://www.w3.org/2000/svg">
<rect width="100" height="100" rx="10" fill="white"/>
<path d="M78.8863 54.3382C76.0953 54.3528 73.6697 55.022 71.6385 56.0113C70.8933 54.5419 70.1481 53.2325 70.0166 52.2723C69.8705 51.1521 69.6951 50.4683 69.8705 49.1299C70.0458 47.7914 70.8349 45.8856 70.8203 45.7401C70.8057 45.5946 70.6449 44.9108 69.0376 44.8963C67.4302 44.8817 66.042 45.2018 65.8813 45.6237C65.7206 46.0456 65.4137 47.0058 65.2091 47.9951C64.9315 49.4499 61.9944 54.6437 60.314 57.3643C59.7734 56.3022 59.3058 55.3712 59.2035 54.6292C59.0574 53.5089 58.882 52.8252 59.0574 51.4867C59.2327 50.1483 60.0218 48.2424 60.0072 48.0969C59.9925 47.9514 59.8318 47.2677 58.2245 47.2531C56.6171 47.2386 55.2289 47.5586 55.0682 47.9805C54.9075 48.4024 54.7321 49.3917 54.396 50.3519C54.0599 51.3121 50.1585 59.983 49.1356 62.2235C48.6096 63.3728 48.1566 64.2894 47.8351 64.9149C47.8351 64.9149 47.8205 64.9586 47.7766 65.0313C47.499 65.5696 47.3383 65.8606 47.3383 65.8606C47.3383 65.8606 47.3383 65.8606 47.3383 65.8751C47.1191 66.2679 46.8853 66.6317 46.7684 66.6317C46.6807 66.6317 46.52 65.5842 46.7976 64.1584C47.3821 61.1469 48.7703 56.4623 48.7557 56.3023C48.7557 56.215 49.0187 55.4002 47.8497 54.9783C46.71 54.5564 46.3008 55.2548 46.1985 55.2548C46.0962 55.2548 46.0232 55.5021 46.0232 55.5021C46.0232 55.5021 47.2944 50.2355 43.5975 50.2355C41.2888 50.2355 38.1033 52.7524 36.5252 55.022C35.5315 55.5603 33.4128 56.7096 31.1478 57.9462C30.2857 58.4263 29.3944 58.9064 28.5615 59.3574C28.503 59.2992 28.4446 59.2265 28.3861 59.1683C23.9148 54.411 15.6442 51.0503 15.9949 44.6635C16.1264 42.3357 16.9301 36.2254 31.8785 28.8057C44.182 22.768 53.9723 24.4411 55.6673 28.151C58.0929 33.4466 50.4215 43.2814 37.7088 44.7071C32.8575 45.2454 30.3149 43.3832 29.672 42.6849C28.9998 41.9575 28.8975 41.9138 28.6491 42.0593C28.24 42.2775 28.503 42.9322 28.6491 43.3105C29.0291 44.2998 30.5926 46.0456 33.2374 46.9039C35.5754 47.6605 41.2596 48.0824 48.142 45.4346C55.8426 42.4667 61.8629 34.2177 60.0948 27.3072C58.3267 20.2948 46.6369 17.9816 35.5754 21.8951C28.9998 24.2229 21.869 27.8891 16.7401 32.661C10.6468 38.3349 9.68236 43.2668 10.0769 45.3327C11.4943 52.6651 21.6498 57.437 25.7121 60.9723C25.5075 61.0887 25.3175 61.1905 25.1568 61.2778C23.1257 62.2817 15.3812 66.3116 13.4523 70.5743C11.2605 75.4044 13.803 78.8669 15.4834 79.3325C20.7 80.7728 26.0628 78.1831 28.9414 73.9059C31.82 69.6286 31.4693 64.0711 30.1396 61.5251C30.125 61.4961 30.1104 61.467 30.0811 61.4379C30.6072 61.1323 31.1478 60.8123 31.6739 60.5068C32.7114 59.8957 33.7342 59.3283 34.611 58.8628C34.1141 60.2158 33.7488 61.8307 33.5735 64.1584C33.3543 66.8935 34.4795 70.4434 35.9553 71.84C36.6128 72.451 37.3873 72.4656 37.8841 72.4656C39.6084 72.4656 40.3828 71.0398 41.2449 69.3522C42.297 67.2863 43.2468 64.8858 43.2468 64.8858C43.2468 64.8858 42.0632 71.3745 45.2779 71.3745C46.4469 71.3745 47.6305 69.8614 48.1566 69.0903C48.1566 69.1049 48.1566 69.1049 48.1566 69.1049C48.1566 69.1049 48.1858 69.0613 48.2442 68.9594C48.3611 68.7703 48.4342 68.6539 48.4342 68.6539C48.4342 68.6539 48.4342 68.6393 48.4342 68.6248C48.9018 67.8101 49.9539 65.9624 51.5174 62.8927C53.5339 58.9355 55.4773 53.989 55.4773 53.989C55.4773 53.989 55.6527 55.1966 56.2518 57.2043C56.6025 58.3827 57.3331 59.6775 57.9176 60.9287C57.45 61.5833 57.1578 61.9471 57.1578 61.9471C57.1578 61.9471 57.1578 61.9471 57.1724 61.9616C56.7924 62.4562 56.3833 62.9945 55.9303 63.5183C54.3376 65.4096 52.438 67.5773 52.175 68.2029C51.8681 68.9449 51.9412 69.4832 52.5257 69.9196C52.9494 70.2397 53.7092 70.2833 54.4837 70.2397C55.9157 70.1378 56.924 69.7887 57.4208 69.5704C58.1952 69.294 59.1012 68.8721 59.9487 68.2465C61.5122 67.0972 62.462 65.4532 62.3743 63.2855C62.3305 62.0925 61.936 60.8996 61.4538 59.7793C61.5999 59.5757 61.7314 59.372 61.8775 59.1683C64.347 55.5748 66.2612 51.6322 66.2612 51.6322C66.2612 51.6322 66.4366 52.8397 67.0357 54.8474C67.3279 55.8658 67.927 56.9715 68.4531 58.0481C66.1297 59.9248 64.6977 62.1071 64.1863 63.5328C63.2657 66.1807 63.9817 67.3736 65.3406 67.6501C65.9544 67.781 66.8311 67.49 67.474 67.2136C68.2923 66.9517 69.2567 66.5007 70.1773 65.8315C71.7408 64.6822 73.2459 63.0818 73.1582 60.9141C73.1144 59.9248 72.8514 58.9501 72.4861 58.0044C74.4587 57.1897 77.0013 56.7387 80.2452 57.117C87.2007 57.9317 88.5742 62.2526 88.3112 64.0711C88.0482 65.8897 86.5869 66.879 86.1047 67.1845C85.6225 67.49 85.4618 67.5919 85.5056 67.8101C85.5641 68.1301 85.7979 68.1156 86.207 68.0574C86.7769 67.9556 89.8601 66.588 89.9916 63.2419C90.2108 58.9646 86.1194 54.2946 78.8863 54.3382ZM25.2299 72.3492C22.9211 74.8515 19.7064 75.7972 18.3182 74.997C16.8278 74.1387 17.4123 70.4434 20.2471 67.7955C21.9713 66.1807 24.1924 64.6822 25.6682 63.7656C26.0043 63.5619 26.5011 63.271 27.1002 62.9073C27.2025 62.8491 27.261 62.82 27.261 62.82C27.3779 62.7472 27.4948 62.6745 27.6117 62.6017C28.6491 66.3843 27.6555 69.7159 25.2299 72.3492ZM42.034 60.9723C41.2303 62.9218 39.5499 67.9119 38.5271 67.6355C37.6503 67.4027 37.1097 63.6201 38.3517 59.8812C38.98 58.0044 40.3098 55.764 41.0842 54.8911C42.3409 53.4944 43.729 53.0288 44.0651 53.5962C44.4889 54.3382 42.5308 59.7502 42.034 60.9723ZM55.9011 67.5773C55.565 67.7519 55.2435 67.8683 55.0974 67.781C54.9951 67.7228 55.2435 67.49 55.2435 67.49C55.2435 67.49 56.9824 65.6278 57.6692 64.784C58.0637 64.2894 58.5313 63.7074 59.0281 63.0527C59.0281 63.1109 59.0281 63.1837 59.0281 63.2419C59.0281 65.4678 56.8655 66.9663 55.9011 67.5773ZM66.5973 65.1477C66.3489 64.9731 66.3927 64.3912 67.2256 62.5726C67.5471 61.8598 68.3069 60.6668 69.6074 59.5175C69.7536 59.983 69.8559 60.434 69.8412 60.8559C69.8266 63.6638 67.8101 64.7113 66.5973 65.1477Z" fill="#CD6799"/>
</svg>
