<svg width="50" height="50" viewBox="0 0 50 50" fill="none" xmlns="http://www.w3.org/2000/svg">
<g clip-path="url(#clip0_7_64)">
<path d="M22.666 0.0976639C14.1895 0.917976 6.61134 6.05469 2.77345 13.5938C1.41603 16.2598 0.615246 18.8281 0.175793 21.9238C-0.0195198 23.291 0.00977707 26.8457 0.234386 28.3691C0.615246 31.084 1.41603 33.6523 2.6465 36.1231C5.07814 41.0254 8.96486 44.9121 13.877 47.3535C21.8359 51.3184 31.25 50.7715 38.6719 45.918C41.5723 44.0234 44.3262 41.2109 46.2012 38.2227C46.9238 37.0898 47.9981 34.8828 48.4863 33.5547C48.9844 32.207 49.5606 29.8828 49.7656 28.3691C49.9902 26.8359 50.0195 23.2813 49.8242 21.9238C49.2481 17.8711 47.959 14.4141 45.8203 11.1914C44.9219 9.82422 44.0137 8.71095 42.7442 7.43165C38.8477 3.4961 34.0039 1.0547 28.4668 0.234383C27.2754 0.0586014 23.916 -0.0195236 22.666 0.0976639ZM40 13.0957C40.3223 13.291 40.625 13.7988 40.625 14.1406C40.625 14.3945 35.7617 35.9082 35.625 36.2598C35.3906 36.8652 34.4922 37.3047 33.8477 37.1191C33.6621 37.0703 31.8164 35.8887 29.7559 34.4824C27.6856 33.0762 25.9668 31.9336 25.9277 31.9336C25.8984 31.9336 25.0684 32.6953 24.0918 33.6231C21.8359 35.7617 21.8652 35.7422 21.2793 35.7422C20.8692 35.7422 20.7422 35.6934 20.459 35.4199C20.166 35.1367 20 34.7168 18.7891 31.1523C18.0567 28.9746 17.4024 27.1484 17.3438 27.0801C17.2852 27.0215 15.5859 26.5234 13.5742 25.9766C10.2734 25.0879 9.88282 24.9609 9.64845 24.6973C9.47267 24.5215 9.37501 24.3066 9.37501 24.1211C9.37501 23.4277 9.13087 23.5352 19.6777 19.7363C25.0488 17.8125 31.5137 15.4785 34.0332 14.5703C36.5625 13.6621 38.7109 12.8906 38.8184 12.8613C39.1211 12.7832 39.668 12.8906 40 13.0957Z" fill="black"/>
<path d="M26.7187 21.7285C22.3633 24.2285 18.7793 26.3281 18.7305 26.3867C18.6914 26.4551 18.6523 26.6308 18.6523 26.7676C18.6523 27.0996 20.752 33.2324 20.8789 33.2812C21.0059 33.3203 21.0352 33.1445 21.2891 30.9082C21.4062 29.9414 21.5137 29.0527 21.543 28.9355C21.5723 28.789 23.8477 26.8652 28.3008 23.2324C31.9922 20.2148 35.0391 17.6953 35.0781 17.6367C35.2148 17.4414 35.1074 17.2363 34.8633 17.2168C34.6973 17.1972 32.1484 18.6133 26.7187 21.7285Z" fill="black"/>
</g>
<defs>
<clipPath id="clip0_7_64">
<rect width="50" height="50" fill="white"/>
</clipPath>
</defs>
</svg>
