<svg width="100" height="100" viewBox="0 0 100 100" fill="none" xmlns="http://www.w3.org/2000/svg">
<rect width="100" height="100" rx="10" fill="white"/>
<path d="M21.5583 72.6268C21.0896 73.0273 20.519 73.29 19.9099 73.3856C19.3009 73.4812 18.6772 73.406 18.1083 73.1684L12.05 70.6268C11.4457 70.3747 10.929 69.9502 10.5644 69.4063C10.1999 68.8624 10.0036 68.2232 10 67.5684V32.0184C10.0036 31.3637 10.1999 30.7245 10.5644 30.1806C10.929 29.6367 11.4457 29.2122 12.05 28.9601L18.1083 26.4601C18.6772 26.2225 19.3009 26.1474 19.9099 26.243C20.519 26.3386 21.0896 26.6013 21.5583 27.0018L22.9167 28.1268C22.6412 27.9288 22.3164 27.8107 21.9781 27.7855C21.6398 27.7604 21.3011 27.8292 20.9994 27.9844C20.6977 28.1395 20.4447 28.375 20.2684 28.6648C20.092 28.9546 19.9991 29.2875 20 29.6268V69.9601C19.9991 70.2994 20.092 70.6323 20.2684 70.9221C20.4447 71.2119 20.6977 71.4474 20.9994 71.6025C21.3011 71.7577 21.6398 71.8265 21.9781 71.8014C22.3164 71.7762 22.6412 71.6581 22.9167 71.4601L21.5583 72.6268Z" fill="#52218A"/>
<path d="M12.05 70.6267C11.4457 70.3747 10.929 69.9502 10.5644 69.4063C10.1999 68.8624 10.0036 68.2232 10 67.5684V67.2934C10.0041 67.6782 10.1234 68.0529 10.3426 68.3691C10.5617 68.6854 10.8706 68.9288 11.2293 69.0678C11.5881 69.2068 11.9803 69.2352 12.3554 69.1491C12.7304 69.0631 13.071 68.8666 13.3333 68.5851L65 11.4601C65.7317 10.732 66.6708 10.2483 67.6883 10.0752C68.7059 9.90211 69.7521 10.0482 70.6833 10.4934L87.1667 18.4267C88.0157 18.835 88.7321 19.4747 89.2334 20.2724C89.7347 21.07 90.0004 21.993 90 22.9351V23.1267C89.9995 22.5291 89.8294 21.9439 89.5095 21.439C89.1897 20.9342 88.7331 20.5305 88.1929 20.2748C87.6527 20.0191 87.0511 19.9219 86.4579 19.9945C85.8646 20.0672 85.3042 20.3066 84.8417 20.6851L22.9167 71.4601L21.5583 72.6267C21.0896 73.0272 20.519 73.2899 19.9099 73.3855C19.3009 73.4812 18.6772 73.406 18.1083 73.1684L12.05 70.6267Z" fill="#6C33AF"/>
<path d="M12.05 28.9599C11.4457 29.212 10.929 29.6364 10.5644 30.1803C10.1999 30.7242 10.0036 31.3635 10 32.0182V32.2932C10.0041 31.9085 10.1234 31.5338 10.3426 31.2175C10.5617 30.9012 10.8706 30.6578 11.2293 30.5188C11.5881 30.3798 11.9803 30.3515 12.3554 30.4375C12.7304 30.5236 13.071 30.72 13.3333 31.0016L65 88.1266C65.7317 88.8546 66.6708 89.3384 67.6883 89.5114C68.7059 89.6845 69.7521 89.5384 70.6833 89.0932L87.1667 81.1599C88.0157 80.7517 88.7321 80.1119 89.2334 79.3143C89.7347 78.5166 90.0004 77.5936 90 76.6516V76.4599C89.9995 77.0575 89.8294 77.6428 89.5095 78.1476C89.1897 78.6524 88.7331 79.0561 88.1929 79.3118C87.6527 79.5675 87.0511 79.6647 86.4579 79.5921C85.8646 79.5195 85.3042 79.28 84.8417 78.9016L22.9167 28.1266L21.5583 26.9599C21.0854 26.5663 20.5128 26.3112 19.9039 26.2229C19.295 26.1347 18.6735 26.2167 18.1083 26.4599L12.05 28.9599Z" fill="#854CC7"/>
<path d="M70.6833 89.0939C69.7521 89.5391 68.7059 89.6852 67.6883 89.5121C66.6708 89.339 65.7317 88.8553 65 88.1272C65.4107 88.5349 65.9328 88.8121 66.5006 88.9238C67.0684 89.0354 67.6565 88.9767 68.191 88.7549C68.7255 88.5331 69.1825 88.1581 69.5043 87.6772C69.8262 87.1963 69.9987 86.6309 70 86.0522V13.5522C70.002 12.9721 69.8319 12.4045 69.5113 11.921C69.1907 11.4375 68.7339 11.06 68.1987 10.8361C67.6636 10.6122 67.074 10.5521 66.5047 10.6632C65.9353 10.7744 65.4117 11.0518 65 11.4606C65.7317 10.7325 66.6708 10.2488 67.6883 10.0757C68.7059 9.9026 69.7521 10.0487 70.6833 10.4939L87.1667 18.4189C88.0157 18.8271 88.7321 19.4669 89.2334 20.2645C89.7347 21.0622 90.0004 21.9852 90 22.9272V76.6606C90.0004 77.6026 89.7347 78.5256 89.2334 79.3233C88.7321 80.1209 88.0157 80.7607 87.1667 81.1689L70.6833 89.0939Z" fill="#B179F1"/>
<g opacity="0.25">
<path fill-rule="evenodd" clip-rule="evenodd" d="M67.4083 89.4603C68.5101 89.7117 69.6645 89.5824 70.6833 89.0936L87.1667 81.1686C88.0157 80.7604 88.7321 80.1206 89.2334 79.323C89.7347 78.5254 90.0004 77.6023 90 76.6603V22.9269C90.0004 21.9849 89.7347 21.0619 89.2334 20.2642C88.7321 19.4666 88.0157 18.8268 87.1667 18.4186L70.6833 10.4936C69.517 9.93298 68.1788 9.84636 66.95 10.2519C66.2151 10.4981 65.5476 10.9118 65 11.4603L38.4333 40.8436L22.9167 28.1269L21.5583 26.9603C21.1498 26.611 20.6629 26.3657 20.1391 26.2452C19.6152 26.1248 19.0701 26.1328 18.55 26.2686C18.3977 26.3023 18.2496 26.3526 18.1083 26.4186L12.05 28.9603C11.483 29.1944 10.9915 29.5805 10.6298 30.076C10.2681 30.5715 10.0502 31.1572 10 31.7686C10 31.8519 10 31.9353 10 32.0186V67.5686C10 67.6519 10 67.7353 10 67.8186C10.0502 68.43 10.2681 69.0157 10.6298 69.5112C10.9915 70.0067 11.483 70.3928 12.05 70.6269L18.1083 73.1269C18.2496 73.193 18.3977 73.2433 18.55 73.2769C19.0701 73.4127 19.6152 73.4208 20.1391 73.3003C20.6629 73.1799 21.1498 72.9346 21.5583 72.5853L22.9167 71.4603L38.4333 58.7436L65 88.1269C65.6622 88.788 66.4966 89.2499 67.4083 89.4603ZM70 32.8603L49.3417 49.7936L70 66.7269V32.8603ZM20 38.3519L30.3417 49.7936L20 61.2353V38.3519Z" fill="url(#paint0_linear_296_504)"/>
</g>
<defs>
<linearGradient id="paint0_linear_296_504" x1="50" y1="10.0019" x2="50" y2="89.5853" gradientUnits="userSpaceOnUse">
<stop stop-color="white"/>
<stop offset="1" stop-color="white" stop-opacity="0"/>
</linearGradient>
</defs>
</svg>
